<svg width="100" height="100" viewBox="0 0 100 100" fill="none" xmlns="http://www.w3.org/2000/svg">
<path d="M49.5729 2.82617C23.6867 2.82617 2.66113 23.8516 2.66113 49.7375C2.66113 75.6236 23.6865 96.643 49.5729 96.643C75.4588 96.6432 96.4844 75.6234 96.4844 49.7375C96.4844 23.8516 75.459 2.82617 49.5727 2.82617H49.5729ZM49.5729 6.47578C73.4861 6.47578 92.8346 25.8242 92.8346 49.7375C92.8346 53.2453 92.418 56.6539 91.632 59.9182L82.8613 58.2217L78.8516 44.2385L78.5828 43.2924L77.6367 42.9994L66.2963 39.4961L53.2287 14.3738L52.301 12.5855L50.6105 13.684L32.8188 25.2562L32.2453 25.6287L32.0559 26.2877L22.6934 58.9785L8.97852 64.7277C7.25586 60.0578 6.31133 55.0104 6.31133 49.7375C6.31133 25.8242 25.6598 6.47578 49.573 6.47578H49.5729ZM49.7314 18.6096L39.4717 39.0383L42.6393 65.2957L60.2418 53.1984V65.4973L55.6396 66.718L59.7109 91.8027C56.4598 92.5816 53.0645 92.9932 49.5727 92.9932C32.2264 92.9932 17.2816 82.8141 10.382 68.0967L24.9145 61.9996L25.7203 61.6637L25.9645 60.8215L35.376 27.9543L49.7314 18.6096Z" fill="#073749"/>
</svg>
